<?xml version="1.0" standalone="no"?>
<!DOCTYPE svg PUBLIC "-//W3C//DTD SVG 20010904//EN"
 "http://www.w3.org/TR/2001/REC-SVG-20010904/DTD/svg10.dtd">
<svg version="1.0" xmlns="http://www.w3.org/2000/svg"
 width="527.000000pt" height="527.000000pt" viewBox="0 0 527.000000 527.000000"
 preserveAspectRatio="xMidYMid meet">
<metadata>
Created by potrace 1.14, written by Peter Selinger 2001-2017
</metadata>
<g transform="translate(0.000000,527.000000) scale(0.100000,-0.100000)"
fill="#000000" stroke="none">
<path d="M178 2848 c1 -1169 6 -1726 13 -1733 7 -7 297 -11 882 -12 480 -1
941 -2 1025 -2 l152 -1 -2 -247 -3 -248 -259 -3 c-176 -1 -264 -6 -273 -14 -9
-7 -13 -28 -11 -61 3 -45 6 -51 28 -56 14 -3 427 -5 918 -3 l892 2 0 65 0 65
-266 2 -266 3 0 245 -1 245 1011 5 c654 3 1014 9 1021 15 6 6 11 642 13 1730
l3 1720 -2440 3 -2440 2 3 -1722z m2162 816 c76 -32 119 -97 163 -244 43 -143
50 -195 37 -251 -14 -55 -55 -98 -98 -100 -60 -4 -99 4 -144 28 -53 29 -69 49
-88 108 -7 22 -19 50 -26 63 l-15 22 -47 -24 c-62 -32 -195 -143 -254 -213
-103 -123 -221 -318 -264 -436 l-14 -39 68 7 c147 14 347 70 631 177 253 95
262 98 296 98 17 0 40 -7 51 -15 20 -13 21 -13 16 11 -6 33 23 106 56 140 15
15 46 35 69 46 35 15 56 39 129 145 l86 127 -16 46 c-31 86 -14 159 44 190 28
15 261 59 428 80 252 33 466 25 587 -22 87 -33 163 -132 171 -221 6 -65 -9
-96 -60 -121 -32 -16 -44 -17 -75 -7 -118 35 -413 38 -561 6 -69 -15 -80 -21
-132 -73 -32 -31 -56 -57 -54 -59 2 -2 64 1 139 7 181 14 305 -4 377 -53 74
-50 97 -119 58 -176 -39 -58 -69 -69 -218 -81 -179 -14 -566 -94 -597 -124
-34 -32 -133 -328 -133 -396 0 -38 -30 -88 -61 -100 -84 -35 -204 17 -259 113
-26 45 -30 62 -30 129 l0 78 -40 -39 c-40 -39 -123 -76 -380 -171 -290 -108
-516 -145 -631 -105 -85 30 -195 129 -257 230 -37 60 -37 60 -36 170 1 92 6
124 29 195 112 344 441 718 737 837 109 44 236 51 318 17z"/>
</g>
</svg>
